<mxfile host="65bd71144e">
    <diagram id="wZ2NjNEhO9LyhnzaOCnv" name="Page-1">
        <mxGraphModel dx="1174" dy="917" grid="1" gridSize="10" guides="1" tooltips="1" connect="1" arrows="1" fold="1" page="1" pageScale="1" pageWidth="1000000" pageHeight="1000000" math="0" shadow="0">
            <root>
                <mxCell id="0"/>
                <mxCell id="1" parent="0"/>
                <mxCell id="5" value="" style="edgeStyle=elbowEdgeStyle;html=1;fontSize=21;elbow=vertical;" edge="1" parent="1" source="2" target="4">
                    <mxGeometry relative="1" as="geometry"/>
                </mxCell>
                <mxCell id="7" value="" style="edgeStyle=elbowEdgeStyle;html=1;fontSize=21;elbow=vertical;" edge="1" parent="1" source="2" target="6">
                    <mxGeometry relative="1" as="geometry"/>
                </mxCell>
                <mxCell id="11" value="" style="edgeStyle=elbowEdgeStyle;html=1;fontSize=21;elbow=vertical;" edge="1" parent="1" source="2" target="10">
                    <mxGeometry relative="1" as="geometry"/>
                </mxCell>
                <mxCell id="2" value="BeanPostProcessor" style="rounded=1;whiteSpace=wrap;html=1;fontSize=21;" vertex="1" parent="1">
                    <mxGeometry x="460" y="480" width="350" height="70" as="geometry"/>
                </mxCell>
                <mxCell id="3" value="一些重要的BeanFactoryPostProcessor，以及继承关系" style="shape=note;whiteSpace=wrap;html=1;backgroundOutline=1;darkOpacity=0.05;fontSize=20;" vertex="1" parent="1">
                    <mxGeometry x="40" y="320" width="380" height="100" as="geometry"/>
                </mxCell>
                <mxCell id="9" value="" style="edgeStyle=none;html=1;fontSize=21;" edge="1" parent="1" source="4" target="8">
                    <mxGeometry relative="1" as="geometry"/>
                </mxCell>
                <mxCell id="4" value="&lt;pre style=&quot;background-color: #2b2b2b ; color: #a9b7c6 ; font-family: &amp;#34;jetbrains mono extrabold&amp;#34; , monospace ; font-size: 12.0pt&quot;&gt;InstantiationAwareBeanPostProcessor&lt;/pre&gt;" style="whiteSpace=wrap;html=1;fontSize=21;rounded=1;" vertex="1" parent="1">
                    <mxGeometry x="120" y="665" width="310" height="50" as="geometry"/>
                </mxCell>
                <mxCell id="6" value="&lt;pre style=&quot;background-color: #2b2b2b ; color: #a9b7c6 ; font-family: &amp;#34;jetbrains mono extrabold&amp;#34; , monospace ; font-size: 12.0pt&quot;&gt;MergedBeanDefinitionPostProcessor&lt;/pre&gt;" style="whiteSpace=wrap;html=1;fontSize=21;rounded=1;" vertex="1" parent="1">
                    <mxGeometry x="460" y="670" width="350" height="50" as="geometry"/>
                </mxCell>
                <mxCell id="8" value="&lt;pre style=&quot;background-color: #2b2b2b ; color: #a9b7c6 ; font-family: &amp;#34;jetbrains mono extrabold&amp;#34; , monospace ; font-size: 12.0pt&quot;&gt;SmartInstantiationAwareBeanPostProcessor&lt;/pre&gt;" style="whiteSpace=wrap;html=1;fontSize=21;rounded=1;" vertex="1" parent="1">
                    <mxGeometry x="105" y="780" width="340" height="50" as="geometry"/>
                </mxCell>
                <mxCell id="10" value="&lt;pre style=&quot;background-color: #2b2b2b ; color: #a9b7c6 ; font-family: &amp;#34;jetbrains mono extrabold&amp;#34; , monospace ; font-size: 12.0pt&quot;&gt;DestructionAwareBeanPostProcessor&lt;/pre&gt;" style="whiteSpace=wrap;html=1;fontSize=21;rounded=1;" vertex="1" parent="1">
                    <mxGeometry x="850" y="670" width="280" height="55" as="geometry"/>
                </mxCell>
            </root>
        </mxGraphModel>
    </diagram>
</mxfile>